<?xml version="1.0" encoding="UTF-8" standalone="no"?>
<svg width="20px" height="20px" viewBox="0 0 20 20" version="1.1" xmlns="http://www.w3.org/2000/svg" xmlns:xlink="http://www.w3.org/1999/xlink">
    <!-- Generator: Sketch 48.2 (47327) - http://www.bohemiancoding.com/sketch -->
    <title>feed</title>
    <desc>Created with Sketch.</desc>
    <defs></defs>
    <g id="Social" stroke="none" stroke-width="1" fill="none" fill-rule="evenodd" transform="translate(-132.000000, -180.000000)">
        <g id="icons" transform="translate(20.000000, 20.000000)" fill="#333333">
            <path d="M126.1921,177.8082 C126.1921,171.1802 120.8191,165.8082 114.1921,165.8082 L114.1921,162.8082 C122.4631,162.8082 129.1921,169.5372 129.1921,177.8082 L126.1921,177.8082 Z M121.1921,177.8082 C121.1921,173.9422 118.0581,170.8082 114.1921,170.8082 L114.1921,167.8082 C119.7061,167.8082 124.1921,172.2942 124.1921,177.8082 L121.1921,177.8082 Z M116.1921,177.8082 C115.0881,177.8082 114.1921,176.9122 114.1921,175.8082 C114.1921,174.7032 115.0881,173.8082 116.1921,173.8082 C117.2961,173.8082 118.1921,174.7032 118.1921,175.8082 C118.1921,176.9122 117.2961,177.8082 116.1921,177.8082 Z M130.0001,160.0002 L114.0001,160.0002 C112.8951,160.0002 112.0001,160.8952 112.0001,162.0002 L112.0001,178.0002 C112.0001,179.1042 112.8951,180.0002 114.0001,180.0002 L130.0001,180.0002 C131.1051,180.0002 132.0001,179.1042 132.0001,178.0002 L132.0001,162.0002 C132.0001,160.8952 131.1051,160.0002 130.0001,160.0002 Z" id="feed"></path>
        </g>
    </g>
</svg>