<?xml version="1.0" encoding="UTF-8" standalone="no"?>
<svg width="20px" height="20px" viewBox="0 0 20 20" version="1.1" xmlns="http://www.w3.org/2000/svg" xmlns:xlink="http://www.w3.org/1999/xlink">
    <!-- Generator: Sketch 48.2 (47327) - http://www.bohemiancoding.com/sketch -->
    <title>github [#142]</title>
    <desc>Created with Sketch.</desc>
    <defs></defs>
    <g id="Social" stroke="none" stroke-width="1" fill="none" fill-rule="evenodd" transform="translate(-100.000000, -180.000000)">
        <g id="icons" transform="translate(20.000000, 20.000000)" fill="#333333">
            <path d="M90,160 C95.523,160 100,164.59 100,170.253 C100,174.782 97.138,178.624 93.167,179.981 C92.66,180.082 92.48,179.762 92.48,179.489 C92.48,179.151 92.492,178.047 92.492,176.675 C92.492,175.719 92.172,175.095 91.813,174.777 C94.04,174.523 96.38,173.656 96.38,169.718 C96.38,168.598 95.992,167.684 95.35,166.966 C95.454,166.707 95.797,165.664 95.252,164.252 C95.252,164.252 94.414,163.977 92.505,165.303 C91.706,165.076 90.85,164.962 90,164.958 C89.15,164.962 88.295,165.076 87.497,165.303 C85.586,163.977 84.746,164.252 84.746,164.252 C84.203,165.664 84.546,166.707 84.649,166.966 C84.01,167.684 83.619,168.598 83.619,169.718 C83.619,173.646 85.954,174.526 88.175,174.785 C87.889,175.041 87.63,175.493 87.54,176.156 C86.97,176.418 85.522,176.871 84.63,175.304 C84.63,175.304 84.101,174.319 83.097,174.247 C83.097,174.247 82.122,174.234 83.029,174.87 C83.029,174.87 83.684,175.185 84.139,176.37 C84.139,176.37 84.726,178.2 87.508,177.58 C87.513,178.437 87.522,179.245 87.522,179.489 C87.522,179.76 87.338,180.077 86.839,179.982 C82.865,178.627 80,174.783 80,170.253 C80,164.59 84.478,160 90,160" id="github-[#142]"></path>
        </g>
    </g>
</svg>