<?xml version="1.0" encoding="utf-8"?>
<svg version="1.1" xmlns="http://www.w3.org/2000/svg" xmlns:xlink="http://www.w3.org/1999/xlink" x="0px" y="0px"
	 viewBox="0 0 24 24" style="enable-background:new 0 0 24 24;" xml:space="preserve">
<g>
	<circle cx="12" cy="12" r="12"/>
	<path class="st0" d="M5.2,13.7l-3.4-3.4l2.7-2.7L5,8.1c0.3,0.3,0.9,0.3,1.3,0c0.3-0.3,0.3-0.9,0-1.3L5.8,6.4l2.6-2.6
		c1.3-1.3,3-1.6,6.1,1.4l0.4,0.4L14.4,6c0,0-2.3-1.9-4.3,0.1L21,17.1l-2,2L8.1,8.1c0,0-2.2,2-0.8,3.5l0,0L5.2,13.7z" fill="#0078d4"/>
</g>
</svg>
