<?xml version="1.0" encoding="utf-8"?>
<!-- Generator: Adobe Illustrator 22.1.0, SVG Export Plug-In . SVG Version: 6.00 Build 0)  -->
<svg version="1.1" xmlns="http://www.w3.org/2000/svg" xmlns:xlink="http://www.w3.org/1999/xlink" x="0px" y="0px"
	 viewBox="0 0 16 16" style="enable-background:new 0 0 16 16;" xml:space="preserve">
<style type="text/css">
	.st0{fill:#333333;}
</style>
<title>96dpiDelete</title>
<desc>Created with Sketch.</desc>
<g>
	<rect x="6" y="5" class="st0" width="1" height="8"/>
	<path class="st0" d="M11,2V1c0-0.6-0.4-1-1-1H7C6.4,0,6,0.4,6,1v1H2v1h1v11v0.5v0.1C3,15.4,3.6,16,4.4,16h0.1H5h7h0.5h0.1
		c0.8,0,1.4-0.6,1.4-1.4v-0.1V14V3h1V2H11z M10,1v1H7V1H10z M4.5,15c-0.1,0-0.3,0-0.4-0.1C4,14.8,4,14.6,4,14.5V3h9v11.5
		c0,0.1,0,0.3-0.1,0.4C12.8,15,12.6,15,12.5,15H4.5z"/>
	<rect x="8" y="5" class="st0" width="1" height="8"/>
	<rect x="10" y="5" class="st0" width="1" height="8"/>
</g>
</svg>
