<?xml version="1.0" encoding="utf-8"?>
<!-- Generator: Adobe Illustrator 22.1.0, SVG Export Plug-In . SVG Version: 6.00 Build 0)  -->
<svg version="1.1" xmlns="http://www.w3.org/2000/svg" xmlns:xlink="http://www.w3.org/1999/xlink" x="0px" y="0px"
	 viewBox="0 0 16 16" style="enable-background:new 0 0 16 16;" xml:space="preserve">
<style type="text/css">
	.st0{fill:#333333;}
</style>
<title>96dpiRefresh</title>
<desc>Created with Sketch.</desc>
<path class="st0" d="M10.1,0.3l-0.3,1C12.8,2,15,4.8,15,8c0,3.9-3.1,7-7,7s-7-3.1-7-7c0-2.8,1.6-5.2,4-6.3l0,0V4h1V0H2v1h2.1l0,0
	C1.7,2.4,0,5,0,8c0,4.4,3.6,8,8,8s8-3.6,8-8C16,4.3,13.5,1.2,10.1,0.3z"/>
</svg>
