<?xml version="1.0" encoding="utf-8"?>
<!-- Generator: Adobe Illustrator 22.1.0, SVG Export Plug-In . SVG Version: 6.00 Build 0)  -->
<svg version="1.1" id="图层_1" xmlns="http://www.w3.org/2000/svg" xmlns:xlink="http://www.w3.org/1999/xlink" x="0px" y="0px"
	 viewBox="0 0 16 16" style="enable-background:new 0 0 16 16;" xml:space="preserve">
<style type="text/css">
	.st0{fill:#333333;}
</style>
<title>96dpiSearch</title>
<desc>Created with Sketch.</desc>
<path class="st0" d="M10.5,0C7.5,0,5,2.5,5,5.5C5,6.8,5.5,8.1,6.3,9l-6.1,6.1c-0.2,0.2-0.2,0.5,0,0.7C0.2,16,0.4,16,0.5,16
	s0.3,0,0.4-0.1L7,9.7c1,0.8,2.2,1.3,3.5,1.3c3,0,5.5-2.5,5.5-5.5S13.5,0,10.5,0z M10.5,10C8,10,6,8,6,5.5S8,1,10.5,1S15,3,15,5.5
	S13,10,10.5,10z"/>
</svg>
