<?xml version="1.0" encoding="utf-8"?>
<!-- Generator: Adobe Illustrator 22.1.0, SVG Export Plug-In . SVG Version: 6.00 Build 0)  -->
<svg version="1.1" xmlns="http://www.w3.org/2000/svg" xmlns:xlink="http://www.w3.org/1999/xlink" x="0px" y="0px"
	 viewBox="0 0 16 16" style="enable-background:new 0 0 16 16;" xml:space="preserve">
<style type="text/css">
	.st0{fill:#A1260D;}
</style>
<title>96dpiError info</title>
<desc>Created with Sketch.</desc>
<path class="st0" d="M11.5,5.2L8.7,8l2.8,2.8l-0.7,0.7L8,8.7l-2.8,2.8l-0.7-0.7L7.3,8L4.5,5.2l0.7-0.7L8,7.3l2.8-2.8L11.5,5.2z M8,1
	c3.9,0,7,3.1,7,7s-3.1,7-7,7s-7-3.1-7-7S4.1,1,8,1 M8,0C3.6,0,0,3.6,0,8s3.6,8,8,8s8-3.6,8-8S12.4,0,8,0L8,0z"/>
</svg>
