<?xml version="1.0" encoding="utf-8"?>
<!-- Generator: Adobe Illustrator 22.1.0, SVG Export Plug-In . SVG Version: 6.00 Build 0)  -->
<svg version="1.1" xmlns="http://www.w3.org/2000/svg" xmlns:xlink="http://www.w3.org/1999/xlink" x="0px" y="0px"
	 viewBox="0 0 16 16" style="enable-background:new 0 0 16 16;" xml:space="preserve">
<style type="text/css">
	.st0{enable-background:new    ;}
	.st1{fill:#333333;}
</style>
<title>96dpiPublish</title>
<desc>Created with Sketch.</desc>
<g id="Publish">
	<g class="st0">
		<path class="st1" d="M15,4.3V16H2V0h8.7L15,4.3z M14,15V5h-4V1H3v14H14z M11,4h2.3L11,1.7V4z"/>
	</g>
	<g>
		<path class="st1" d="M12,9.5c-0.8,0-1.5,0.7-1.5,1.5v1.5c0,0.3-0.2,0.5-0.5,0.5H9.5v1H10c0.8,0,1.5-0.7,1.5-1.5V11
			c0-0.3,0.2-0.5,0.5-0.5h0.5v-1H12z"/>
		<path class="st1" d="M10,6c0.8,0,1.5,0.7,1.5,1.5V9c0,0.3,0.2,0.5,0.5,0.5h0.5v1H12c-0.8,0-1.5-0.7-1.5-1.5V7.5
			C10.5,7.2,10.3,7,10,7H9.5V6H10z"/>
		<path class="st1" d="M5,9.5c0.8,0,1.5,0.7,1.5,1.5v1.5C6.5,12.8,6.7,13,7,13h0.5v1H7c-0.8,0-1.5-0.7-1.5-1.5V11
			c0-0.3-0.2-0.5-0.5-0.5H4.5v-1H5z"/>
		<path class="st1" d="M7,6C6.2,6,5.5,6.7,5.5,7.5V9c0,0.3-0.2,0.5-0.5,0.5H4.5v1H5c0.8,0,1.5-0.7,1.5-1.5V7.5C6.5,7.2,6.7,7,7,7
			h0.5V6H7z"/>
	</g>
</g>
</svg>
